<svg width="21" height="21" viewBox="0 0 21 21" fill="none" xmlns="http://www.w3.org/2000/svg">
<path d="M10.272 0.0234532C6.11911 0.0234532 2.17552 -0.345973 0.669225 3.51984C0.0470346 5.1165 0.13739 7.19008 0.13739 10.1592C0.13739 12.7646 0.053897 15.2134 0.669225 16.7974C2.17209 20.6655 6.14771 20.295 10.2697 20.295C14.2465 20.295 18.3468 20.709 19.8714 16.7974C20.4947 15.1848 20.4032 13.1421 20.4032 10.1592C20.4032 6.19961 20.6216 3.64337 18.7013 1.72418C16.757 -0.220162 14.1275 0.0234532 10.2674 0.0234532H10.272ZM9.36388 1.84999C18.0265 1.83627 19.1291 0.873248 18.5206 14.2515C18.3044 18.9831 14.7017 18.4639 10.2732 18.4639C2.1984 18.4639 1.96622 18.2328 1.96622 10.1546C1.96622 1.98267 2.60671 1.85457 9.36388 1.84771V1.84999ZM15.6819 3.53243C15.0105 3.53243 14.4661 4.07684 14.4661 4.74821C14.4661 5.41959 15.0105 5.964 15.6819 5.964C16.3532 5.964 16.8977 5.41959 16.8977 4.74821C16.8977 4.07684 16.3532 3.53243 15.6819 3.53243ZM10.272 4.95409C7.39781 4.95409 5.06802 7.28501 5.06802 10.1592C5.06802 13.0334 7.39781 15.3632 10.272 15.3632C13.1462 15.3632 15.4748 13.0334 15.4748 10.1592C15.4748 7.28501 13.1462 4.95409 10.272 4.95409ZM10.272 6.78063C14.7383 6.78063 14.744 13.5378 10.272 13.5378C5.80687 13.5378 5.80001 6.78063 10.272 6.78063Z" fill="white"/>
</svg>
