<svg width="18" height="11" viewBox="0 0 18 11" fill="none" xmlns="http://www.w3.org/2000/svg">
<path fill-rule="evenodd" clip-rule="evenodd" d="M8.6084 10.5268H9.63666C9.63666 10.5268 9.94726 10.4927 10.1058 10.3217C10.2518 10.1648 10.2471 9.87007 10.2471 9.87007C10.2471 9.87007 10.227 8.49034 10.8674 8.28716C11.4986 8.08702 12.3093 9.62066 13.1684 10.2103C13.8181 10.6566 14.3118 10.5588 14.3118 10.5588L16.6091 10.5268C16.6091 10.5268 17.8109 10.4527 17.2411 9.50786C17.1944 9.43056 16.9092 8.80888 15.533 7.53144C14.0925 6.19444 14.2854 6.41069 16.0206 4.09798C17.0774 2.68952 17.4998 1.82964 17.3679 1.46135C17.242 1.11058 16.4648 1.20329 16.4648 1.20329L13.8782 1.21941C13.8782 1.21941 13.6864 1.19325 13.5442 1.27826C13.4052 1.36163 13.3158 1.55593 13.3158 1.55593C13.3158 1.55593 12.9064 2.64585 12.3604 3.57276C11.2086 5.52863 10.7481 5.63185 10.5598 5.51041C10.122 5.22736 10.2312 4.37332 10.2312 3.76659C10.2312 1.87121 10.5187 1.08092 9.67146 0.876343C9.39028 0.808383 9.18337 0.763544 8.46431 0.756305C7.54137 0.74673 6.76019 0.759107 6.31787 0.975829C6.02362 1.11992 5.79662 1.44103 5.93487 1.45948C6.10582 1.48237 6.49302 1.56387 6.6983 1.84342C6.96337 2.204 6.95403 3.0139 6.95403 3.0139C6.95403 3.0139 7.10629 5.24511 6.59835 5.52232C6.24968 5.71242 5.7714 5.32428 4.74454 3.54987C4.21838 2.64094 3.82113 1.63627 3.82113 1.63627C3.82113 1.63627 3.74453 1.44851 3.60791 1.34809C3.4421 1.22641 3.21043 1.18765 3.21043 1.18765L0.752461 1.20376C0.752461 1.20376 0.383473 1.21404 0.248022 1.37448C0.127517 1.51717 0.238447 1.81236 0.238447 1.81236C0.238447 1.81236 2.16279 6.31448 4.34169 8.58328C6.33959 10.6634 8.6084 10.5268 8.6084 10.5268Z" fill="white"/>
</svg>
